<svg width="1445" height="106" viewBox="0 0 1445 106" fill="none" xmlns="http://www.w3.org/2000/svg">
<rect width="1440" height="10" fill="black"/>
<rect y="96" width="1440" height="10" fill="black"/>
<ellipse cx="212.5" cy="53" rx="42.5" ry="43" fill="black"/>
<ellipse cx="297.5" cy="53" rx="42.5" ry="43" fill="black"/>
<ellipse cx="382.5" cy="53" rx="42.5" ry="43" fill="black"/>
<ellipse cx="467.5" cy="53" rx="42.5" ry="43" fill="black"/>
<ellipse cx="553.5" cy="53" rx="42.5" ry="43" fill="black"/>
<ellipse cx="637.5" cy="53" rx="42.5" ry="43" fill="black"/>
<ellipse cx="723.5" cy="53" rx="42.5" ry="43" fill="black"/>
<ellipse cx="807.5" cy="53" rx="42.5" ry="43" fill="black"/>
<ellipse cx="892.5" cy="53" rx="42.5" ry="43" fill="black"/>
<ellipse cx="978.5" cy="53" rx="42.5" ry="43" fill="black"/>
<ellipse cx="1062.5" cy="53" rx="42.5" ry="43" fill="black"/>
<ellipse cx="1147.5" cy="53" rx="42.5" ry="43" fill="black"/>
<ellipse cx="1233.5" cy="53" rx="42.5" ry="43" fill="black"/>
<ellipse cx="1317.5" cy="53" rx="42.5" ry="43" fill="black"/>
<ellipse cx="1402.5" cy="53" rx="42.5" ry="43" fill="black"/>
<ellipse cx="127.5" cy="53" rx="42.5" ry="43" fill="black"/>
<ellipse cx="42.5" cy="53" rx="42.5" ry="43" fill="black"/>
<circle cx="43" cy="53" r="30" fill="#933535"/>
<circle cx="128" cy="53" r="30" fill="#933535"/>
<circle cx="213" cy="53" r="30" fill="#933535"/>
<circle cx="298" cy="53" r="30" fill="#933535"/>
<circle cx="383" cy="53" r="30" fill="#933535"/>
<circle cx="468" cy="53" r="30" fill="#933535"/>
<circle cx="553" cy="53" r="30" fill="#933535"/>
<circle cx="638" cy="53" r="30" fill="#933535"/>
<circle cx="723" cy="53" r="30" fill="#933535"/>
<circle cx="808" cy="53" r="30" fill="#933535"/>
<circle cx="893" cy="53" r="30" fill="#933535"/>
<circle cx="978" cy="53" r="30" fill="#933535"/>
<circle cx="1063" cy="53" r="30" fill="#933535"/>
<circle cx="1148" cy="53" r="30" fill="#933535"/>
<circle cx="1233" cy="53" r="30" fill="#933535"/>
<circle cx="1318" cy="53" r="30" fill="#933535"/>
<circle cx="1403" cy="53" r="30" fill="#933535"/>
<rect y="47" width="1440" height="10" fill="black"/>
</svg>
