<svg width="1097" height="176" viewBox="0 0 1097 176" fill="none" xmlns="http://www.w3.org/2000/svg">
<rect x="140" y="61.3413" width="40" height="10.6635" fill="#050000"/>
<rect x="125" y="61.3413" width="15" height="42.654" fill="#050000"/>
<rect x="125" y="103.995" width="80" height="10.6635" fill="#050000"/>
<rect x="190" y="32.9053" width="15" height="71.09" fill="#050000"/>
<rect x="70" y="32.9053" width="120" height="10.6635" fill="#050000"/>
<rect x="70" y="43.5687" width="15" height="99.5261" fill="#050000"/>
<rect x="85" y="132.431" width="120" height="10.6635" fill="#050000"/>
<rect x="336" y="61.3413" width="40" height="10.6635" fill="#050000"/>
<rect x="321" y="61.3413" width="15" height="42.654" fill="#050000"/>
<rect x="321" y="103.995" width="80" height="10.6635" fill="#050000"/>
<rect x="386" y="32.9053" width="15" height="71.09" fill="#050000"/>
<rect x="266" y="32.9053" width="120" height="10.6635" fill="#050000"/>
<rect x="266" y="43.5687" width="15" height="99.5261" fill="#050000"/>
<rect x="281" y="132.431" width="120" height="10.6635" fill="#050000"/>
<rect x="336" y="61.3413" width="40" height="10.6635" fill="#050000"/>
<rect x="321" y="61.3413" width="15" height="42.654" fill="#050000"/>
<rect x="321" y="103.995" width="80" height="10.6635" fill="#050000"/>
<rect x="386" y="32.9053" width="15" height="71.09" fill="#050000"/>
<rect x="266" y="32.9053" width="120" height="10.6635" fill="#050000"/>
<rect x="266" y="43.5687" width="15" height="99.5261" fill="#050000"/>
<rect x="281" y="132.431" width="120" height="10.6635" fill="#050000"/>
<rect x="1050" y="32.9053" width="120" height="10.6635" fill="#050000"/>
<rect x="1050" y="43.5687" width="15" height="99.5261" fill="#050000"/>
<rect x="1065" y="132.431" width="120" height="10.6635" fill="#050000"/>
<rect x="924" y="61.3413" width="40" height="10.6635" fill="#050000"/>
<rect x="909" y="61.3413" width="15" height="42.654" fill="#050000"/>
<rect x="909" y="103.995" width="80" height="10.6635" fill="#050000"/>
<rect x="974" y="32.9053" width="15" height="71.09" fill="#050000"/>
<rect x="854" y="32.9053" width="120" height="10.6635" fill="#050000"/>
<rect x="854" y="43.5687" width="15" height="99.5261" fill="#050000"/>
<rect x="869" y="132.431" width="120" height="10.6635" fill="#050000"/>
<rect x="728" y="61.3413" width="40" height="10.6635" fill="#050000"/>
<rect x="713" y="61.3413" width="15" height="42.654" fill="#050000"/>
<rect x="713" y="103.995" width="80" height="10.6635" fill="#050000"/>
<rect x="778" y="32.9053" width="15" height="71.09" fill="#050000"/>
<rect x="658" y="32.9053" width="120" height="10.6635" fill="#050000"/>
<rect x="658" y="43.5687" width="15" height="99.5261" fill="#050000"/>
<rect x="673" y="132.431" width="120" height="10.6635" fill="#050000"/>
<rect x="532" y="61.3413" width="40" height="10.6635" fill="#050000"/>
<rect x="517" y="61.3413" width="15" height="42.654" fill="#050000"/>
<rect x="517" y="103.995" width="80" height="10.6635" fill="#050000"/>
<rect x="582" y="32.9053" width="15" height="71.09" fill="#050000"/>
<rect x="462" y="32.9053" width="120" height="10.6635" fill="#050000"/>
<rect x="462" y="43.5687" width="15" height="99.5261" fill="#050000"/>
<rect x="477" y="132.431" width="120" height="10.6635" fill="#050000"/>
<rect y="13" width="1440" height="3.5545" fill="#050000"/>
<rect width="1440" height="8" fill="#050000"/>
<rect y="168" width="1440" height="8" fill="#050000"/>
<rect y="159.446" width="1440" height="3.5545" fill="#050000"/>
</svg>
